<?xml version="1.0" encoding="utf-8"?>
<!-- Generator: Adobe Illustrator 19.2.1, SVG Export Plug-In . SVG Version: 6.00 Build 0)  -->
<svg version="1.1" id="layer" xmlns="http://www.w3.org/2000/svg" xmlns:xlink="http://www.w3.org/1999/xlink" x="0px" y="0px"
	 viewBox="0 0 652 652" style="enable-background:new 0 0 652 652;" xml:space="preserve">
<style type="text/css">
	.st0{fill:#EB0029;}
	.st1{fill:#252C3E;}
	.st2{fill:#EB002A;}
</style>
<g id="XMLID_1_">
	<g id="XMLID_288_">
		<g id="XMLID_314_">
			<path id="XMLID_315_" class="st0" d="M484.1,367.1c-19.8,0-34.6-11.3-40.4-30.8l18.8-3.7c4.6,12.5,14.8,15.4,22.3,15.4
				c7.9,0,16.5-5.6,16.5-12.5c0-10.2-11.3-13.8-23.1-19.6c-14-6.9-29.8-13.3-29.8-33.5c0-9.6,3.1-17.1,9.2-22.3
				c6.3-5.4,15.4-9.6,27.1-9.6c18.8,0,32.3,11.7,38.3,26l-18.5,5.2c-4.6-8.3-12.3-12.3-20.2-12.3c-8.5,0-15.8,4.6-15.8,11.9
				c0,11.2,11,13.8,21.7,19.2c14.8,7.1,32.9,13.5,32.9,35.2C522.7,351.8,504.6,367.1,484.1,367.1z"/>
		</g>
		<g id="XMLID_312_">
			<path id="XMLID_313_" class="st0" d="M572.3,367.1c-19.8,0-34.6-11.3-40.4-30.8l18.8-3.7c4.6,12.5,14.8,15.4,22.3,15.4
				c7.9,0,16.5-5.6,16.5-12.5c0-10.2-11.3-13.8-23.1-19.6c-14-6.9-29.8-13.3-29.8-33.5c0-9.6,3.1-17.1,9.2-22.3
				c6.3-5.4,15.4-9.6,27.1-9.6c18.8,0,32.3,11.7,38.3,26l-18.5,5.2c-4.6-8.3-12.3-12.3-20.2-12.3c-8.5,0-15.8,4.6-15.8,11.9
				c0,11.2,11,13.8,21.7,19.2c14.8,7.1,32.9,13.5,32.9,35.2C610.8,351.8,592.7,367.1,572.3,367.1z"/>
		</g>
		<path id="XMLID_306_" class="st1" d="M154.8,283.7v-27.1h14.4c2.7,0,5,2.3,5,5v22.1h12.3c2.3,0,4.2,1.5,4.8,3.5l3.8,12.1h-20.8
			v46.3c0,4.4,2.3,5.6,7.1,5.6c2.9,0,6-1,9-1.7v16c-5.4,0.6-10,1.3-15.4,1.3c-14.4,0-20.2-7.3-20.2-19v-48.8h-11.3v-15.6h11.5V283.7
			z"/>
		<path id="XMLID_300_" class="st1" d="M199.8,378.5c2.9,0.6,5.4,0.6,8.1,0.6c6.7,0,10.6-1.9,12.9-6.5c1.9-4,3.1-6.3,3.1-9.6
			c0-2.9-1.7-6.5-2.5-9.8l-21.9-69.8h13.3c3.8,0,7.1,2.5,8.1,6.3l11.9,44.2h0.4l14-50.2h19.6l-26,81.9
			c-8.5,23.3-15.6,29.8-31.7,29.8c-4.8,0-7.1-0.4-9.4-0.6V378.5z"/>
		<path id="XMLID_297_" class="st0" d="M383.9,251.8h18.5c4.4,0,8.3,2.9,9.6,7.3l30.2,106.5h-21L415,341h-36l-6.7,24.6h-21
			L383.9,251.8z M383.7,322.9h26.5l-12.7-49.4h-0.4L383.7,322.9z"/>
		<path id="XMLID_296_" class="st0" d="M120.8,270.6c-6,0-11-5-11-11c0-6,5-11,11-11c6,0,11,5,11,11
			C131.9,265.6,126.8,270.6,120.8,270.6z"/>
		<path id="XMLID_293_" class="st0" d="M326.4,251.8h-46v113.5h20v-45.8h19.8l0,0h6.3c18.8,0,33.8-15.2,33.8-33.8
			C360.2,267.1,345,251.8,326.4,251.8z M325.2,301.8h-24.8v-32.3h24.8c9,0,16.3,7.3,16.3,16.2C341.2,294.6,333.9,301.8,325.2,301.8z
			"/>
		<path id="XMLID_292_" class="st1" d="M63.5,347.9c-11,0-20.4-8.1-22.3-18.1c-1.5-7.9-1.2-15-1.2-21s-0.2-13.1,1.2-21
			c1.5-9.2,11.3-18.1,22.3-18.1c9,0,16.7,5.2,20.4,12.9l18.5-5.2c-6-15.6-21.2-26.9-39-26.9c-21.5,0-39.8,16.2-42.1,37.3
			c0,0-0.8,8.1-0.8,21.3c0,13.1,0.8,20.8,0.8,20.8c2.3,20.8,20.4,37.3,42.1,37.3c17.9,0,33.3-11.5,39.2-27.3l-18.5-5
			C80.6,342.5,72.7,347.9,63.5,347.9z"/>
		<path id="XMLID_289_" class="st1" d="M111,365.4v-81.7h14.6c2.7,0,5,2.3,5,5v76.7L111,365.4L111,365.4z"/>
	</g>
	<g id="XMLID_282_">
		<path id="XMLID_283_" class="st2" d="M614.3,365.4c-3.5,0-6.3-2.7-6.3-6.3c0-3.3,2.7-6.3,6.3-6.3c3.5,0,6.3,2.7,6.3,6.3
			C620.6,362.5,617.9,365.4,614.3,365.4z M614.3,353.7c-3.1,0-5.4,2.5-5.4,5.6s2.3,5.4,5.4,5.4s5.4-2.5,5.4-5.6
			C620,356,617.5,353.7,614.3,353.7z M616,360l1.7,2.3H616l-1.5-2.1h-1.3v2.1h-1.5v-6.7h2.9c1.7,0,2.5,0.8,2.5,2.1
			C617.3,358.9,616.8,359.6,616,360z M614.8,357.1h-1.5v1.9h1.5c0.8,0,1-0.4,1-1S615.4,357.1,614.8,357.1z"/>
	</g>
</g>
</svg>
